Coordinates
version=1
nRows=12
nColumns=33
inDegrees=yes

Units are S.I. units (second, meters, Newtons, ...)
Angles are in degrees.

endheader
time	ground_thorax_rot_x	ground_thorax_rot_y	ground_thorax_rot_z	ground_thorax_tx	ground_thorax_ty	ground_thorax_tz	clav_prot_r	clav_elev_r	scapula_abduction_r	scapula_elevation_r	scapula_upward_rot_r	scapula_winging_r	shoulder_elv_r	plane_of_elev_r	axial_rot_r	elbow_flexion_r	pro_sup_r	wrist_flex_r	wrist_dev_r	clav_prot_l	clav_elev_l	scapula_abduction_l	scapula_elevation_l	scapula_upward_rot_l	scapula_winging_l	shoulder_elv_l	plane_of_elev_l	axial_rot_l	elbow_flexion_l	pro_sup_l	wrist_flex_l	wrist_dev_l	
1.7500	8.476563	-5.535211	13.747383	-0.126627	1.048320	0.005859	9.242636	-14.623716	20.192231	-10.124147	7.650864	-2.581325	51.898759	12.731231	-15.842924	132.546013	36.984399	30.666703	-23.348153	9.096060	-9.332542	-15.024030	1.277349	-5.274434	2.213860	47.276082	46.737969	0.817195	118.836326	27.559764	-5.603136	-11.600056	
1.7600	8.473431	-5.414969	13.749969	-0.126519	1.048350	0.006008	9.210908	-14.854141	19.751170	-10.082629	6.962181	-2.295885	52.340382	12.863469	-15.966391	132.798722	36.842705	30.753718	-23.759530	9.143249	-9.299917	-15.037183	1.174732	-5.439771	2.223899	47.209913	46.849328	0.416128	119.021095	27.106817	-5.347356	-11.479895	
1.7700	8.464854	-5.288799	13.762862	-0.126401	1.048403	0.006173	9.184770	-15.054495	19.306325	-10.002344	6.246474	-2.026474	52.825270	13.067985	-16.096769	133.024211	36.678926	30.845272	-24.189823	9.230457	-9.310465	-15.100233	1.088176	-5.657777	2.236167	47.151196	46.935984	-0.078405	119.223822	27.468612	-5.553925	-11.219694	
1.7800	8.479954	-5.168899	13.773358	-0.126302	1.048421	0.006363	9.180874	-15.173436	18.958968	-9.883737	5.634289	-1.839077	53.256454	13.290672	-16.217594	133.213427	36.525548	30.927278	-24.535089	9.353061	-9.383884	-15.215812	1.046228	-5.904531	2.245605	47.119675	46.968855	-0.640647	119.475585	29.295145	-6.581968	-10.765851	
1.7900	8.507723	-5.058067	13.769887	-0.126203	1.048438	0.006579	9.184317	-15.238460	18.699457	-9.764259	5.155256	-1.713056	53.615073	13.494535	-16.320708	133.382486	36.394680	30.997215	-24.794464	9.478926	-9.496831	-15.346246	1.048592	-6.132711	2.247195	47.133573	46.941686	-1.213837	119.754233	31.358555	-7.797478	-10.187529	
1.8000	8.549088	-4.964111	13.749745	-0.126111	1.048436	0.006808	9.204758	-15.251016	18.563798	-9.658685	4.845997	-1.661090	53.882932	13.644075	-16.405464	133.524688	36.301471	31.051129	-24.929829	9.602679	-9.640631	-15.483948	1.089613	-6.337208	2.241234	47.184868	46.857647	-1.805574	120.079890	34.010695	-9.383878	-9.466530	
1.8100	8.574954	-4.876971	13.712977	-0.126011	1.048487	0.007035	9.221358	-15.282899	18.481246	-9.611520	4.644767	-1.615657	54.122686	13.723090	-16.483322	133.647256	36.238092	31.097958	-24.993506	9.692458	-9.801239	-15.584949	1.169933	-6.488131	2.215649	47.290400	46.720253	-2.429725	120.439254	35.982249	-10.751773	-8.409834	
1.8200	8.586110	-4.792232	13.666139	-0.125894	1.048570	0.007242	9.239706	-15.319558	18.452062	-9.602951	4.534918	-1.585888	54.345007	13.743906	-16.561025	133.749443	36.195898	31.136486	-24.998545	9.755077	-9.945538	-15.663140	1.262847	-6.576956	2.189347	47.395041	46.559915	-3.045686	120.787924	37.410145	-11.925439	-7.325339	
1.8300	8.582396	-4.703229	13.618277	-0.125768	1.048685	0.007433	9.252580	-15.357061	18.431371	-9.607467	4.457125	-1.557914	54.579873	13.767188	-16.641569	133.820652	36.151123	31.171209	-24.997393	9.786882	-10.086593	-15.696972	1.362491	-6.645109	2.145724	47.559624	46.407037	-3.662448	121.102372	38.048786	-12.823621	-6.008673	
1.8400	8.564606	-4.611371	13.586992	-0.125652	1.048774	0.007542	9.301509	-15.351011	18.475758	-9.573917	4.388603	-1.580510	54.843023	13.809402	-16.758480	133.871139	36.086978	31.193078	-24.995334	9.825180	-10.060172	-15.788831	1.368464	-6.577283	2.194300	47.409956	46.386779	-4.026652	121.061337	38.845491	-13.642377	-6.220249	
1.8500	8.533230	-4.511652	13.573411	-0.125554	1.048860	0.007587	9.379173	-15.305782	18.576751	-9.509357	4.336442	-1.647504	55.123719	13.867175	-16.910183	133.904537	36.016759	31.190823	-24.991632	9.861670	-9.891992	-15.920696	1.299209	-6.385326	2.317277	46.978624	46.494048	-4.159340	120.702320	39.682668	-14.307664	-7.672612	
1.8600	8.487483	-4.405484	13.575791	-0.125463	1.048933	0.007549	9.482116	-15.211395	18.746757	-9.417587	4.334268	-1.768782	55.399754	13.925798	-17.088268	133.918448	35.968006	31.134782	-24.985040	9.901344	-9.538151	-16.115233	1.132145	-6.027981	2.543592	46.163613	46.745746	-3.960067	119.968335	40.299349	-14.464884	-10.983129	
